<mxfile host="app.diagrams.net" modified="2023-08-25T16:47:04.477Z" agent="Mozilla/5.0 (Linux; Android 10; K) AppleWebKit/537.36 (KHTML, like Gecko) Chrome/116.0.0.0 Mobile Safari/537.36" version="21.6.9" etag="1CVyLn2pihLWL6d_rrPi" type="github">
  <diagram name="PÃ¡gina-1" id="yU4O8HZwZ89WLWkOwFpG">
    <mxGraphModel>
      <root>
        <mxCell id="0" />
        <mxCell id="1" parent="0" />
      </root>
    </mxGraphModel>
  </diagram>
</mxfile>
